<svg version="1.1" width="82" height="88" viewBox="-1 -1 82 88" xmlns="http://www.w3.org/2000/svg" xmlns:xlink="http://www.w3.org/1999/xlink">
  <!-- Exported by Scratch - http://scratch.mit.edu/ -->
  <path id="ID0.7188518447801471" fill="#F0A81E" d="M 200.388 213.021 L 200.343 215.444 C 200.343 215.444 225.153 228.028 259.150 224.624 C 259.150 224.624 277.503 222.544 281.138 215.341 L 270.415 212.716 C 270.415 212.715 238.034 230.422 200.388 213.021 " transform="matrix(1, 0, 0, 1, -200, -138)"/>
  <path id="ID0.15340860234573483" fill="#F5C000" d="M 268.610 208.371 L 241.739 142.519 C 239.901 142.389 238.345 141.271 237.589 139.687 C 236.784 141.372 235.080 142.544 233.089 142.544 C 232.189 142.544 231.357 142.287 230.627 141.871 L 204.333 203.668 L 200.387 213.021 C 200.387 213.021 235.313 231.987 270.415 212.714 L 268.610 208.371 Z " transform="matrix(1, 0, 0, 1, -200, -138)"/>
  <path id="ID0.6728434208780527" fill="#F0A81E" d="M 248.460 178.948 C 243.146 178.948 238.893 183.200 238.893 188.397 C 238.893 193.712 243.146 197.964 248.460 197.964 C 253.657 197.964 257.910 193.712 257.910 188.397 C 257.910 183.200 253.657 178.948 248.460 178.948 Z M 247.397 196.902 C 243.263 196.902 239.955 193.594 239.955 189.461 C 239.955 185.326 243.264 182.020 247.397 182.020 C 251.530 182.020 254.838 185.327 254.838 189.461 C 254.839 193.595 251.531 196.902 247.397 196.902 Z " transform="matrix(1, 0, 0, 1, -200, -138)"/>
  <path id="ID0.5199870220385492" fill="#F0A81E" d="M 231.183 153.257 C 227.994 153.257 225.278 155.857 225.278 159.045 C 225.278 162.353 227.994 164.951 231.183 164.951 C 234.491 164.951 237.089 162.352 237.089 159.045 C 237.089 155.856 234.490 153.257 231.183 153.257 Z M 230.592 164.360 C 227.993 164.360 225.986 162.234 225.986 159.754 C 225.986 157.155 227.994 155.148 230.592 155.148 C 233.073 155.148 235.199 157.156 235.199 159.754 C 235.199 162.234 233.073 164.360 230.592 164.360 Z " transform="matrix(1, 0, 0, 1, -200, -138)"/>
  <path id="ID0.7881872244179249" fill="#F0A81E" d="M 258.908 203.900 C 256.382 203.900 254.231 205.959 254.231 208.483 C 254.231 211.102 256.381 213.160 258.908 213.160 C 261.527 213.160 263.585 211.102 263.585 208.483 C 263.585 205.959 261.527 203.900 258.908 203.900 Z M 258.440 212.693 C 256.381 212.693 254.792 211.009 254.792 209.045 C 254.792 206.986 256.382 205.397 258.440 205.397 C 260.405 205.397 262.088 206.987 262.088 209.045 C 262.089 211.010 260.405 212.693 258.440 212.693 Z " transform="matrix(1, 0, 0, 1, -200, -138)"/>
  <path id="ID0.2425197698175907" fill="#F0A81E" d="M 218.640 196.978 C 213.325 196.978 209.072 201.230 209.072 206.545 C 209.072 211.743 213.325 215.995 218.640 215.995 C 223.836 215.995 228.089 211.743 228.089 206.545 C 228.089 201.229 223.836 196.978 218.640 196.978 Z M 217.576 214.932 C 213.442 214.932 210.134 211.625 210.134 207.491 C 210.134 203.474 213.443 200.168 217.576 200.168 C 221.709 200.168 225.018 203.475 225.018 207.491 C 225.019 211.625 221.710 214.932 217.576 214.932 Z " transform="matrix(1, 0, 0, 1, -200, -138)"/>
  <path id="ID0.8877583406865597" fill="#F8DA79" d="M 246.894 138.854 C 246.316 140.976 244.395 142.545 242.089 142.545 C 241.970 142.545 241.856 142.527 241.738 142.520 L 270.388 212.739 L 281.255 215.380 L 246.894 138.854 Z " transform="matrix(1, 0, 0, 1, -200, -138)"/>
</svg>