<svg version="1.1" width="82" height="67" viewBox="-1 -1 82 67" xmlns="http://www.w3.org/2000/svg" xmlns:xlink="http://www.w3.org/1999/xlink">
  <!-- Exported by Scratch - http://scratch.mit.edu/ -->
  <path id="ID0.8095672484487295" fill="#F0A81E" d="M 200.388 213.021 L 200.343 215.444 C 200.343 215.444 225.153 228.028 259.150 224.624 C 259.150 224.624 277.503 222.544 281.138 215.341 L 270.415 212.716 C 270.415 212.715 238.034 230.422 200.388 213.021 " transform="matrix(1, 0, 0, 1, -200, -160)"/>
  <path id="ID0.428871083073318" fill="#F5C000" d="M 268.610 208.371 L 251.344 166.060 C 250.548 166.553 249.683 166.998 248.755 167.388 L 248.755 172.878 C 248.755 175.638 246.517 177.878 243.755 177.878 C 241.763 177.878 240.060 176.704 239.255 175.021 C 238.450 176.705 236.745 177.878 234.755 177.878 C 231.993 177.878 229.755 175.638 229.755 172.878 L 229.755 167.388 C 226.276 165.928 223.653 163.690 222.463 161.056 L 204.332 203.668 L 200.386 213.021 C 200.386 213.021 235.312 231.987 270.414 212.714 L 268.610 208.371 Z " transform="matrix(1, 0, 0, 1, -200, -160)"/>
  <path id="ID0.34509382490068674" fill="#F8DA79" d="M 256.425 160.079 C 255.714 162.410 253.897 164.482 251.344 166.061 L 270.389 212.738 L 281.256 215.379 L 256.425 160.079 Z " transform="matrix(1, 0, 0, 1, -200, -160)"/>
  <path id="ID0.21110499929636717" fill="#F0A81E" d="M 248.460 178.948 C 243.146 178.948 238.893 183.200 238.893 188.397 C 238.893 193.712 243.146 197.964 248.460 197.964 C 253.657 197.964 257.910 193.712 257.910 188.397 C 257.910 183.200 253.657 178.948 248.460 178.948 Z M 247.397 196.902 C 243.263 196.902 239.955 193.594 239.955 189.461 C 239.955 185.326 243.264 182.020 247.397 182.020 C 251.530 182.020 254.838 185.327 254.838 189.461 C 254.839 193.595 251.531 196.902 247.397 196.902 Z " transform="matrix(1, 0, 0, 1, -200, -160)"/>
  <path id="ID0.4015541006810963" fill="#F0A81E" d="M 258.908 203.900 C 256.382 203.900 254.231 205.959 254.231 208.483 C 254.231 211.102 256.381 213.160 258.908 213.160 C 261.527 213.160 263.585 211.102 263.585 208.483 C 263.585 205.959 261.527 203.900 258.908 203.900 Z M 258.440 212.693 C 256.381 212.693 254.792 211.009 254.792 209.045 C 254.792 206.986 256.382 205.397 258.440 205.397 C 260.405 205.397 262.088 206.987 262.088 209.045 C 262.089 211.010 260.405 212.693 258.440 212.693 Z " transform="matrix(1, 0, 0, 1, -200, -160)"/>
  <path id="ID0.7933567306026816" fill="#F0A81E" d="M 218.640 196.978 C 213.325 196.978 209.072 201.230 209.072 206.545 C 209.072 211.743 213.325 215.995 218.640 215.995 C 223.836 215.995 228.089 211.743 228.089 206.545 C 228.089 201.229 223.836 196.978 218.640 196.978 Z M 217.576 214.932 C 213.442 214.932 210.134 211.625 210.134 207.491 C 210.134 203.474 213.443 200.168 217.576 200.168 C 221.709 200.168 225.018 203.475 225.018 207.491 C 225.019 211.625 221.710 214.932 217.576 214.932 Z " transform="matrix(1, 0, 0, 1, -200, -160)"/>
</svg>