<svg version="1.1" width="82" height="53" viewBox="-1 -1 82 53" xmlns="http://www.w3.org/2000/svg" xmlns:xlink="http://www.w3.org/1999/xlink">
  <!-- Exported by Scratch - http://scratch.mit.edu/ -->
  <path id="ID0.6661991681903601" fill="#F0A81E" d="M 200.388 213.021 L 200.343 215.444 C 200.343 215.444 225.153 228.028 259.150 224.624 C 259.150 224.624 277.503 222.544 281.138 215.341 L 270.415 212.716 C 270.415 212.715 238.034 230.422 200.388 213.021 " transform="matrix(1, 0, 0, 1, -200, -173)"/>
  <path id="ID0.03614817978814244" fill="#F5C000" d="M 268.610 208.371 L 255.633 176.571 C 253.904 177.163 252.064 177.667 250.119 178.056 C 249.877 178.169 249.631 178.283 249.379 178.388 L 249.379 183.878 C 249.379 186.638 247.141 188.878 244.379 188.878 C 242.387 188.878 240.684 187.704 239.879 186.021 C 239.074 187.705 237.369 188.878 235.379 188.878 C 232.617 188.878 230.379 186.638 230.379 183.878 L 230.379 178.388 C 230.126 178.282 229.881 178.169 229.638 178.056 C 224.784 177.084 220.534 175.437 217.242 173.328 L 204.333 203.668 L 200.387 213.021 C 200.387 213.021 235.313 231.987 270.415 212.714 L 268.610 208.371 Z " transform="matrix(1, 0, 0, 1, -200, -173)"/>
  <path id="ID0.42360902670770884" fill="#F8DA79" d="M 262.405 173.397 C 260.455 174.631 258.174 175.703 255.632 176.572 L 270.389 212.738 L 281.256 215.379 L 262.405 173.397 Z " transform="matrix(1, 0, 0, 1, -200, -173)"/>
  <path id="ID0.08042475813999772" fill="#F0A81E" d="M 258.908 203.900 C 256.382 203.900 254.231 205.959 254.231 208.483 C 254.231 211.102 256.381 213.160 258.908 213.160 C 261.527 213.160 263.585 211.102 263.585 208.483 C 263.585 205.959 261.527 203.900 258.908 203.900 Z M 258.440 212.693 C 256.381 212.693 254.792 211.009 254.792 209.045 C 254.792 206.986 256.382 205.397 258.440 205.397 C 260.405 205.397 262.088 206.987 262.088 209.045 C 262.089 211.010 260.405 212.693 258.440 212.693 Z " transform="matrix(1, 0, 0, 1, -200, -173)"/>
  <path id="ID0.43190056923776865" fill="#F0A81E" d="M 218.640 196.978 C 213.325 196.978 209.072 201.230 209.072 206.545 C 209.072 211.743 213.325 215.995 218.640 215.995 C 223.836 215.995 228.089 211.743 228.089 206.545 C 228.089 201.229 223.836 196.978 218.640 196.978 Z M 217.576 214.932 C 213.442 214.932 210.134 211.625 210.134 207.491 C 210.134 203.474 213.443 200.168 217.576 200.168 C 221.709 200.168 225.018 203.475 225.018 207.491 C 225.019 211.625 221.710 214.932 217.576 214.932 Z " transform="matrix(1, 0, 0, 1, -200, -173)"/>
  <path id="ID0.9985571787692606" fill="#F0A81E" d="M 249.380 178.995 L 249.380 182.291 C 252.538 183.151 254.839 186.015 254.839 189.461 C 254.839 193.595 251.531 196.902 247.398 196.902 C 243.265 196.902 239.956 193.594 239.956 189.461 C 239.956 188.552 240.124 187.686 240.418 186.883 C 240.215 186.613 240.028 186.329 239.881 186.022 C 239.647 186.512 239.329 186.952 238.958 187.338 C 238.918 187.687 238.894 188.039 238.894 188.398 C 238.894 193.713 243.147 197.965 248.461 197.965 C 253.658 197.965 257.911 193.713 257.911 188.398 C 257.910 183.511 254.149 179.462 249.380 178.995 Z " transform="matrix(1, 0, 0, 1, -200, -173)"/>
</svg>