<svg version="1.1" width="82" height="47" viewBox="-1 -1 82 47" xmlns="http://www.w3.org/2000/svg" xmlns:xlink="http://www.w3.org/1999/xlink">
  <!-- Exported by Scratch - http://scratch.mit.edu/ -->
  <path id="ID0.1061098170466721" fill="#F0A81E" d="M 200.388 213.021 L 200.343 215.444 C 200.343 215.444 225.153 228.028 259.150 224.624 C 259.150 224.624 277.503 222.544 281.138 215.341 L 270.415 212.716 C 270.415 212.715 238.034 230.422 200.388 213.021 " transform="matrix(1, 0, 0, 1, -200, -180)"/>
  <path id="ID0.9398420308716595" fill="#F5C000" d="M 268.610 208.371 L 258.797 184.322 C 256.227 185.481 253.309 186.418 250.120 187.056 C 249.878 187.169 249.632 187.283 249.380 187.388 L 249.380 192.878 C 249.380 195.638 247.142 197.878 244.380 197.878 C 242.388 197.878 240.685 196.704 239.880 195.021 C 239.075 196.705 237.370 197.878 235.380 197.878 C 232.618 197.878 230.380 195.638 230.380 192.878 L 230.380 187.388 C 230.127 187.282 229.882 187.169 229.639 187.056 C 223.208 185.768 217.820 183.301 214.346 180.135 L 204.333 203.668 L 200.387 213.021 C 200.387 213.021 235.313 231.987 270.415 212.714 L 268.610 208.371 Z " transform="matrix(1, 0, 0, 1, -200, -180)"/>
  <path id="ID0.4476461987942457" fill="#F8DA79" d="M 265.426 180.124 C 263.671 181.726 261.416 183.141 258.795 184.323 L 270.389 212.738 L 281.256 215.379 L 265.426 180.124 Z " transform="matrix(1, 0, 0, 1, -200, -180)"/>
  <path id="ID0.8887765258550644" fill="#F0A81E" d="M 258.908 203.900 C 256.382 203.900 254.231 205.959 254.231 208.483 C 254.231 211.102 256.381 213.160 258.908 213.160 C 261.527 213.160 263.585 211.102 263.585 208.483 C 263.585 205.959 261.527 203.900 258.908 203.900 Z M 258.440 212.693 C 256.381 212.693 254.792 211.009 254.792 209.045 C 254.792 206.986 256.382 205.397 258.440 205.397 C 260.405 205.397 262.088 206.987 262.088 209.045 C 262.089 211.010 260.405 212.693 258.440 212.693 Z " transform="matrix(1, 0, 0, 1, -200, -180)"/>
  <path id="ID0.20156257087364793" fill="#F0A81E" d="M 218.640 196.978 C 213.325 196.978 209.072 201.230 209.072 206.545 C 209.072 211.743 213.325 215.995 218.640 215.995 C 223.836 215.995 228.089 211.743 228.089 206.545 C 228.089 201.229 223.836 196.978 218.640 196.978 Z M 217.576 214.932 C 213.442 214.932 210.134 211.625 210.134 207.491 C 210.134 203.474 213.443 200.168 217.576 200.168 C 221.709 200.168 225.018 203.475 225.018 207.491 C 225.019 211.625 221.710 214.932 217.576 214.932 Z " transform="matrix(1, 0, 0, 1, -200, -180)"/>
  <path id="ID0.521445513702929" fill="#F0A81E" d="M 254.025 186.089 C 254.538 187.101 254.838 188.240 254.838 189.461 C 254.838 193.595 251.530 196.902 247.397 196.902 C 247.374 196.902 247.351 196.899 247.328 196.898 C 246.901 197.211 246.424 197.449 245.909 197.615 C 246.722 197.837 247.574 197.965 248.460 197.965 C 253.657 197.965 257.910 193.713 257.910 188.398 C 257.910 187.191 257.679 186.035 257.262 184.971 C 256.228 185.379 255.152 185.756 254.025 186.089 Z " transform="matrix(1, 0, 0, 1, -200, -180)"/>
</svg>