<svg version="1.1" width="82" height="38" viewBox="-1 -1 82 38" xmlns="http://www.w3.org/2000/svg" xmlns:xlink="http://www.w3.org/1999/xlink">
  <!-- Exported by Scratch - http://scratch.mit.edu/ -->
  <path id="ID0.6231464962475002" fill="#F0A81E" d="M 200.388 213.021 L 200.343 215.444 C 200.343 215.444 225.153 228.028 259.150 224.624 C 259.150 224.624 277.503 222.544 281.138 215.341 L 270.415 212.716 C 270.415 212.715 238.034 230.422 200.388 213.021 " transform="matrix(1, 0, 0, 1, -200, -188)"/>
  <path id="ID0.8033035383559763" fill="#F8DA79" d="M 269.225 188.584 C 268.300 191.174 266.257 193.542 263.370 195.534 L 270.390 212.738 L 281.257 215.379 L 269.225 188.584 Z " transform="matrix(1, 0, 0, 1, -200, -188)"/>
  <path id="ID0.1161398901604116" fill="#F5C000" d="M 268.610 208.371 L 263.371 195.532 C 259.995 197.862 255.487 199.680 250.286 200.722 C 250.044 200.835 249.798 200.949 249.546 201.054 L 249.546 206.544 C 249.546 209.304 247.308 211.544 244.546 211.544 C 242.554 211.544 240.851 210.370 240.046 208.687 C 239.241 210.371 237.536 211.544 235.546 211.544 C 232.784 211.544 230.546 209.304 230.546 206.544 L 230.546 201.054 C 230.293 200.948 230.048 200.835 229.805 200.722 C 220.074 198.773 212.743 194.122 210.814 188.436 L 204.334 203.668 L 200.388 213.021 C 200.388 213.021 235.314 231.987 270.416 212.714 L 268.610 208.371 Z " transform="matrix(1, 0, 0, 1, -200, -188)"/>
  <path id="ID0.19434078549966216" fill="#F0A81E" d="M 258.908 203.900 C 256.382 203.900 254.231 205.959 254.231 208.483 C 254.231 211.102 256.381 213.160 258.908 213.160 C 261.527 213.160 263.585 211.102 263.585 208.483 C 263.585 205.959 261.527 203.900 258.908 203.900 Z M 258.440 212.693 C 256.381 212.693 254.792 211.009 254.792 209.045 C 254.792 206.986 256.382 205.397 258.440 205.397 C 260.405 205.397 262.088 206.987 262.088 209.045 C 262.089 211.010 260.405 212.693 258.440 212.693 Z " transform="matrix(1, 0, 0, 1, -200, -188)"/>
  <path id="ID0.020647739060223103" fill="#F0A81E" d="M 224.981 199.464 C 222.844 198.776 220.879 197.949 219.128 197.003 C 218.965 196.994 218.804 196.978 218.639 196.978 C 213.324 196.978 209.071 201.230 209.071 206.545 C 209.071 211.743 213.324 215.995 218.639 215.995 C 223.835 215.995 228.088 211.743 228.088 206.545 C 228.089 203.724 226.883 201.209 224.981 199.464 Z M 217.576 214.932 C 213.442 214.932 210.134 211.625 210.134 207.491 C 210.134 203.474 213.443 200.168 217.576 200.168 C 221.709 200.168 225.018 203.475 225.018 207.491 C 225.019 211.625 221.710 214.932 217.576 214.932 Z " transform="matrix(1, 0, 0, 1, -200, -188)"/>
</svg>