<svg version="1.1" width="82" height="29" viewBox="-1 -1 82 29" xmlns="http://www.w3.org/2000/svg" xmlns:xlink="http://www.w3.org/1999/xlink">
  <!-- Exported by Scratch - http://scratch.mit.edu/ -->
  <path id="ID0.2820125655271113" fill="#F0A81E" d="M 200.388 213.021 L 200.343 215.444 C 200.343 215.444 225.153 228.028 259.150 224.624 C 259.150 224.624 277.503 222.544 281.138 215.341 L 270.415 212.716 C 270.415 212.715 238.034 230.422 200.388 213.021 " transform="matrix(1, 0, 0, 1, -200, -197)"/>
  <path id="ID0.24402225436642766" fill="#F8DA79" d="M 273.282 197.620 C 271.173 199.088 268.660 200.408 265.822 201.546 L 270.388 212.738 L 281.255 215.379 L 273.282 197.620 Z " transform="matrix(1, 0, 0, 1, -200, -197)"/>
  <path id="ID0.5817216271534562" fill="#F5C000" d="M 265.825 201.545 C 261.727 203.187 256.953 204.446 251.734 205.209 L 251.734 213.545 C 251.734 215.202 250.391 216.545 248.734 216.545 L 243.234 216.545 C 241.577 216.545 240.234 215.202 240.234 213.545 C 240.234 215.202 238.891 216.545 237.234 216.545 L 231.734 216.545 C 230.077 216.545 228.734 215.202 228.734 213.545 L 228.734 205.267 C 219.783 204.009 212.108 201.297 206.876 197.693 L 204.333 203.670 L 200.387 213.023 C 200.387 213.023 235.313 231.989 270.415 212.716 L 268.610 208.372 L 265.825 201.545 Z " transform="matrix(1, 0, 0, 1, -200, -197)"/>
  <path id="ID0.4187642657198012" fill="#F0A81E" d="M 258.908 203.900 C 256.382 203.900 254.231 205.959 254.231 208.483 C 254.231 211.102 256.381 213.160 258.908 213.160 C 261.527 213.160 263.585 211.102 263.585 208.483 C 263.585 205.959 261.527 203.900 258.908 203.900 Z M 258.440 212.693 C 256.381 212.693 254.792 211.009 254.792 209.045 C 254.792 206.986 256.382 205.397 258.440 205.397 C 260.405 205.397 262.088 206.987 262.088 209.045 C 262.089 211.010 260.405 212.693 258.440 212.693 Z " transform="matrix(1, 0, 0, 1, -200, -197)"/>
  <path id="ID0.4897920875810087" fill="#F0A81E" d="M 224.371 204.517 C 224.784 205.429 225.018 206.434 225.018 207.491 C 225.018 211.626 221.709 214.932 217.576 214.932 C 213.443 214.932 210.134 211.625 210.134 207.491 C 210.134 204.890 211.525 202.595 213.624 201.294 C 212.853 200.973 212.108 200.638 211.390 200.289 C 209.947 201.963 209.072 204.143 209.072 206.546 C 209.072 211.744 213.325 215.996 218.640 215.996 C 223.836 215.996 228.089 211.744 228.089 206.546 C 228.089 206.071 228.043 205.608 227.977 205.153 C 226.749 204.967 225.546 204.756 224.371 204.517 Z " transform="matrix(1, 0, 0, 1, -200, -197)"/>
</svg>