<svg version="1.1" width="82" height="22" viewBox="-1 -1 82 22" xmlns="http://www.w3.org/2000/svg" xmlns:xlink="http://www.w3.org/1999/xlink">
  <!-- Exported by Scratch - http://scratch.mit.edu/ -->
  <path id="ID0.5319304522126913" fill="#F8DA79" d="M 276.782 205.415 C 274.879 207.264 272.391 208.945 269.436 210.405 L 270.388 212.738 L 281.255 215.379 L 276.782 205.415 Z " transform="matrix(1, 0, 0, 1, -200, -204)"/>
  <path id="ID0.047984140925109386" fill="#F0A81E" d="M 241.009 225.034 C 240.837 224.655 240.735 224.238 240.735 223.795 C 240.735 224.225 240.641 224.631 240.479 225 C 240.656 225.011 240.830 225.024 241.009 225.034 Z " transform="matrix(1, 0, 0, 1, -200, -204)"/>
  <path id="ID0.4580212617293" fill="#F0A81E" d="M 229.234 223.795 L 229.234 220.467 C 220.358 219.852 210.570 217.728 200.387 213.021 L 200.342 215.444 C 200.342 215.444 211.562 221.125 229.236 223.819 C 229.236 223.811 229.234 223.803 229.234 223.795 Z " transform="matrix(1, 0, 0, 1, -200, -204)"/>
  <path id="ID0.3752303458750248" fill="#F0A81E" d="M 270.415 212.715 C 270.415 212.715 263.449 216.517 252.234 218.866 L 252.234 223.795 C 252.234 224.271 252.114 224.714 251.917 225.113 C 254.278 225.023 256.687 224.870 259.149 224.623 C 259.149 224.623 277.502 222.543 281.137 215.340 L 270.415 212.715 Z " transform="matrix(1, 0, 0, 1, -200, -204)"/>
  <path id="ID0.3373612626455724" fill="#F5C000" d="M 229.234 215.517 C 217.941 213.930 208.686 210.028 203.796 204.940 L 200.386 213.022 C 200.386 213.022 212.319 219.488 229.234 221.027 L 229.234 215.517 Z " transform="matrix(1, 0, 0, 1, -200, -204)"/>
  <path id="ID0.4516799943521619" fill="#F5C000" d="M 252.234 215.459 L 252.234 219.597 C 258.167 218.259 264.286 216.080 270.415 212.715 L 269.452 210.399 C 264.741 212.728 258.847 214.492 252.234 215.459 Z " transform="matrix(1, 0, 0, 1, -200, -204)"/>
</svg>